<?xml version="1.0" encoding="UTF-8" standalone="no"?>
<!-- Created with Inkscape (http://www.inkscape.org/) -->

<svg
   xmlns:dc="http://purl.org/dc/elements/1.1/"
   xmlns:cc="http://creativecommons.org/ns#"
   xmlns:rdf="http://www.w3.org/1999/02/22-rdf-syntax-ns#"
   xmlns:svg="http://www.w3.org/2000/svg"
   xmlns="http://www.w3.org/2000/svg"
   xmlns:sodipodi="http://sodipodi.sourceforge.net/DTD/sodipodi-0.dtd"
   xmlns:inkscape="http://www.inkscape.org/namespaces/inkscape"
   id="svg3211"
   height="145.07"
   width="500"
   version="1.1"
   inkscape:version="0.48.5 r10040"
   sodipodi:docname="logo-gerakdarirumah.svg">
  <title
     id="title2987">Logo GerakDariRumah</title>
  <defs
     id="defs8" />
  <sodipodi:namedview
     pagecolor="#ffffff"
     bordercolor="#666666"
     borderopacity="1"
     objecttolerance="10"
     gridtolerance="10"
     guidetolerance="10"
     inkscape:pageopacity="0"
     inkscape:pageshadow="2"
     inkscape:window-width="1600"
     inkscape:window-height="837"
     id="namedview6"
     showgrid="false"
     inkscape:zoom="0.572"
     inkscape:cx="-20.104895"
     inkscape:cy="72.535004"
     inkscape:window-x="-8"
     inkscape:window-y="-8"
     inkscape:window-maximized="1"
     inkscape:current-layer="layer1" />
  <metadata
     id="metadata3216">
    <rdf:RDF>
      <cc:Work
         rdf:about="">
        <dc:format>image/svg+xml</dc:format>
        <dc:type
           rdf:resource="http://purl.org/dc/dcmitype/StillImage" />
        <dc:title>Logo GerakDariRumah</dc:title>
        <dc:creator>
          <cc:Agent>
            <dc:title>Fawwaz Muhammad</dc:title>
          </cc:Agent>
        </dc:creator>
        <dc:publisher>
          <cc:Agent>
            <dc:title>#GerakDariRumah</dc:title>
          </cc:Agent>
        </dc:publisher>
        <dc:language>id</dc:language>
        <dc:description />
        <cc:license
           rdf:resource="https://creativecommons.org/publicdomain/zero/1.0/" />
      </cc:Work>
    </rdf:RDF>
  </metadata>
  <g
     id="layer1"
     transform="translate(-52.252047,-366.92804)"
     inkscape:export-filename="C:\Users\elite\Documents\GitHub\gerakdarirumah\logo-gerakdarirumah\logo-gerakdarirumah-hitam.png"
     inkscape:export-xdpi="220"
     inkscape:export-ydpi="220"
     style="fill:#000000">
    <path
       id="path3228"
       fill="#000000"
       d="m55.588,511.45c-1.4048-0.64836-2.2889-1.567-2.8881-3.001-0.39934-0.95575-0.44896-6.4574-0.44752-49.619,0.001-31.651,0.10319-48.909,0.29347-49.595,0.16052-0.57787,0.71478-1.4595,1.2317-1.9592,0.8103-0.7833,60.972-36.664,66.04-39.386,2.1004-1.1283,3.3836-1.2391,5.1352-0.44343,1.2214,0.55481,62.994,37.066,65.641,38.798,0.95346,0.62374,1.7358,1.4215,2.1064,2.1478,0.58659,1.1498,0.58912,1.3993,0.51447,50.589l-0.0749,49.433-0.77888,1.1769c-0.46917,0.70895-1.2845,1.4217-2.0504,1.7925l-1.2716,0.61553-66.145-0.006c-63.687-0.006-66.188-0.0264-67.306-0.5421zm57.322-10.85c0.15694-0.35911,1.6574-5.7824,3.3343-12.052l3.049-11.399-5.8599-6.6628c-5.1136-5.8143-5.9179-6.6137-6.315-6.2778-0.25032,0.21172-3.8137,3.3392-7.9187,6.9498-4.105,3.6107-7.892,6.7891-8.4156,7.0632-0.52361,0.2741-1.5397,0.49287-2.2579,0.48616-0.71854-0.008-6.6762-1.4654-13.246-3.2431-6.5671-1.777-12.019-3.2309-12.116-3.2309-0.24098,0-0.22296,28.585,0.01814,28.826,0.10636,0.10637,11.274,0.19346,24.818,0.19346h24.624l0.28536-0.65292zm69.639-42.971,0-43.624-29.721-17.607c-16.346-9.6838-29.845-17.607-29.997-17.607-0.15212,0-11.426,6.6018-25.053,14.671-13.627,8.0688-27.026,16.002-29.775,17.629l-4.9985,2.9586-0.0072,23.422-0.0072,23.422,1.3784,0.40236c0.75813,0.22129,6.1685,1.6826,12.023,3.2474l10.645,2.8451,7.9276-6.975c4.3602-3.8362,8.208-7.284,8.5508-7.6616,0.67073-0.73909,10.663-17.946,10.501-18.083-0.0535-0.0453-2.5785,0.0896-5.611,0.30008-3.0325,0.21046-5.9329,0.38881-6.4453,0.39635-0.89279,0.0129-1.1684,0.364-6.6003,8.4026-5.211,7.7117-5.7756,8.4407-6.9951,9.031-3.7396,1.8103-7.9663-1.1438-7.615-5.3221,0.11787-1.4012,0.5914-2.2014,6.8157-11.517,4.8573-7.2699,6.9471-10.161,7.6313-10.556,0.54016-0.31183,1.7019-0.59275,2.7226-0.65835,13.097-0.84173,19.88-1.2644,20.294-1.2644,0.44812,0,0.42278-0.16052-0.22832-1.4454-2.9442-5.81-1.6217-13.164,3.1741-17.65,3.2681-3.0571,6.6937-4.2853,11.301-4.0518,7.1376,0.36173,12.751,5.3804,13.996,12.514,0.61184,3.5048,0.10549,6.4529-1.6899,9.8372-2.3009,4.3374-7.6744,7.7606-12.182,7.7606-0.76905,0-1.3983,0.13169-1.3983,0.29272,0,0.27745,6.2979,13.041,6.5851,13.345,0.16099,0.17071,0.67433-0.11586,10.08-5.627,6.9348-4.0633,7.2998-4.2386,8.8254-4.2386,1.1566,0,1.9164,0.19046,2.7808,0.69703,2.9902,1.7524,3.5084,6.1808,0.99306,8.4878-0.37426,0.34329-5.7534,3.5928-11.954,7.2211-12.266,7.1782-12.647,7.3396-15.094,6.405-0.69232-0.26439-1.5232-0.77124-1.8464-1.1263-0.32321-0.3551-2.1977-4.0082-4.1656-8.1181-1.9679-4.1098-3.6702-7.4724-3.7829-7.4724-0.11269,0-2.1698,3.4167-4.5714,7.5928l-4.3664,7.5928,1.6929,1.911c9.3868,10.596,13.5,15.409,13.839,16.194,0.22194,0.51358,0.4038,1.4277,0.40413,2.0313,0.00028,0.60365-1.4361,6.4728-3.1921,13.043-1.756,6.5698-3.1927,12.087-3.1927,12.261,0,0.22506,8.3572,0.31545,29.164,0.31545h29.164v-43.624zm224.1,50.713c-4.2228-0.92526-7.4698-3.4451-9.2016-7.1408-1.8454-3.9382-1.9623-5.0173-2.1078-19.464l-0.13081-12.986h4.505,4.505l0.0947,13.276c0.0921,12.907,0.11254,13.32,0.73479,14.849,0.87598,2.1526,2.182,3.4261,4.0794,3.9777,3.2322,0.93963,6.4914-0.38923,7.7546-3.1618,1.0694-2.3472,1.3027-5.515,1.3027-17.689v-11.253h4.2284,4.2283l-0.11024,13.421c-0.10362,12.604-0.14788,13.557-0.72705,15.643-2.0513,7.3877-6.9934,11.025-14.874,10.948-1.3566-0.013-3.2832-0.203-4.2811-0.42167zm-187.83-19.841,0-19.798,8.0528,0.1196c8.8885,0.13197,9.7493,0.26508,13.669,2.1138,2.7538,1.2988,5.6237,4.1225,6.9218,6.8104,1.6214,3.3571,1.953,5.1259,1.959,10.447,0.006,5.3767-0.48211,7.8036-2.2448,11.162-1.2696,2.4191-4.2406,5.3426-6.5934,6.4883-3.674,1.7889-5.6964,2.1169-14.147,2.2943l-7.6176,0.15992v-19.798zm15.429,11.602c2.1144-0.79163,3.4553-1.9754,4.5072-3.9791,1.2692-2.4175,1.6829-4.4232,1.6654-8.0746-0.0251-5.2732-1.453-8.7346-4.3649-10.581-1.5811-1.0027-3.3046-1.4274-6.2092-1.5299l-2.1764-0.0768-0.0757,12.594-0.0757,12.594,2.591-0.1839c1.435-0.1019,3.2814-0.44242,4.1384-0.76327zm17.466,7.4617c0.0915-0.35912,2.3967-7.7699,5.1224-16.468,2.7257-8.6985,5.4154-17.287,5.977-19.086l1.0212-3.271,5.3871,0.0788,5.3871,0.0788,6.0483,19.298c3.3266,10.614,6.0524,19.461,6.0574,19.66,0.008,0.27533-1.1007,0.36274-4.5968,0.36274h-4.6058l-0.89378-3.4097c-0.49155-1.8754-1.0462-4.03-1.2325-4.7882l-0.3387-1.3784h-6.0164-6.0164l-1.2472,4.7882-1.2472,4.7882h-4.4862-4.4862l0.16656-0.65292zm21.375-16.106c0.009-0.4567-3.8804-15.609-4.0606-15.82-0.10419-0.1222-0.61658,1.6407-1.1385,3.9176-0.52194,2.2769-1.3948,5.8084-1.9397,7.8479-0.54489,2.0394-0.99073,3.835-0.99073,3.9901,0,0.33177,8.1232,0.39614,8.1296,0.0645zm18.189,16.573c-0.11053-0.11052-0.2009-9.0044-0.2009-19.764v-19.563l9.6489,0.11312c8.8161,0.10334,9.8045,0.16508,11.452,0.71557,3.5328,1.1803,6.1307,3.3245,7.4146,6.1197,0.54458,1.1856,0.63042,1.8961,0.63885,5.2872,0.009,3.6464-0.0437,4.0316-0.76227,5.5645-0.94399,2.0137-2.6206,3.8742-4.5167,5.0121l-1.425,0.85518,3.9652,6.98c2.1808,3.839,4.1861,7.4075,4.4561,7.93l0.49089,0.95002-4.9678-0.0795-4.9678-0.0795-3.725-6.9646-3.725-6.9646-2.4855-0.0838-2.4855-0.0838-0.0777,7.0484-0.0777,7.0484-4.2245,0.0801c-2.3235,0.044-4.315-0.0101-4.4254-0.1209zm16.374-21.583c2.6856-0.74598,4.0866-2.6336,4.0866-5.5061,0-2.2933-0.65313-3.4163-2.5295-4.3492-1.2698-0.63134-1.915-0.73275-5.2912-0.83164l-3.845-0.11269v5.5472,5.5473l3.2646-0.002c1.7956-0.00087,3.7371-0.13284,4.3145-0.29322zm20.57,2.0436,0-19.741,4.5,0,4.5,0-0.0746,19.66-0.0745,19.66-4.4254,0.0802-4.4254,0.0802,0-19.741zm30.381,19.539c-0.11053-0.11052-0.20089-9.0044-0.20089-19.764v-19.563l9.6489,0.11312c8.8161,0.10334,9.8046,0.16508,11.452,0.71557,3.5252,1.1778,6.1446,3.338,7.4362,6.1325,0.54466,1.1785,0.62708,1.8717,0.62708,5.2744,0,3.6263-0.0568,4.0388-0.76472,5.5484-0.93857,2.0017-2.4292,3.6892-4.3446,4.9183-1.0306,0.66134-1.4004,1.0638-1.2757,1.3886,0.0966,0.25153,1.9146,3.5307,4.0403,7.2871,2.1256,3.7564,4.0188,7.1267,4.2069,7.4896l0.34208,0.65984-4.9736-0.0795-4.9736-0.0794-3.713-6.9646-3.713-6.9646-2.4945-0.0838-2.4945-0.0838-0.0777,7.0484-0.0777,7.0484-4.2245,0.0801c-2.3235,0.044-4.3149-0.0101-4.4254-0.1209zm16.374-21.583c2.6856-0.74598,4.0866-2.6336,4.0866-5.5061,0-2.2933-0.65314-3.4163-2.5296-4.3492-1.2697-0.63134-1.915-0.73275-5.2911-0.83164l-3.845-0.11269v5.5472,5.5473l3.2647-0.002c1.7956-0.00087,3.7371-0.13284,4.3144-0.29322zm60.81,21.576c-0.10635-0.10636-0.19347-8.9894-0.19347-19.74v-19.546l4.9609,0.0795,4.9609,0.0795,3.1686,8.7057c1.7428,4.7882,3.6356,10.207,4.2064,12.043,0.57079,1.8355,1.147,3.4518,1.2806,3.5918,0.1337,0.14002,0.3894-0.31672,0.56868-1.0157,0.41718-1.6263,3.8314-11.681,6.196-18.246l1.829-5.0784,4.8416-0.0796,4.8417-0.0796v19.748,19.748l-3.9902-0.0807-3.9902-0.0807,0.0195-9.4312c0.0144-6.9859,0.14969-10.55,0.52205-13.746,0.27651-2.373,0.44933-4.3679,0.3841-4.4331-0.0652-0.0652-0.74162,1.6804-1.503,3.8792-0.76142,2.1988-2.7532,7.6869-4.4262,12.196l-3.0417,8.1979h-2.4015-2.4015l-3.0466-8.1979c-1.6757-4.5088-3.6001-9.8955-4.2765-11.97-1.8389-5.6408-1.9835-5.529-1.1261,0.87058,0.17107,1.2768,0.37919,6.9247,0.46249,12.551l0.15147,10.229h-3.9017c-2.146,0-3.9888-0.0871-4.0952-0.19346zm41.079-0.16928c0.0698-0.19951,2.8515-9.0822,6.1816-19.739l6.0547-19.376,5.3846,0.0787,5.3846,0.0787,6.0072,19.153c3.304,10.534,6.0137,19.384,6.0215,19.668,0.013,0.47556-0.33749,0.50906-4.5563,0.43529l-4.5705-0.0799-0.92776-3.4823c-0.51024-1.9153-1.071-4.0399-1.2461-4.7215l-0.31831-1.2392-6.0045,0.0785-6.0045,0.0784-1.0448,3.9176c-0.57462,2.1547-1.134,4.2767-1.243,4.7156l-0.19828,0.79803h-4.5235c-3.493,0-4.4946-0.0826-4.3966-0.36273zm19.553-24.287c-1.1335-4.4601-2.1419-8.0186-2.241-7.9077-0.099,0.11082-0.60013,2.0297-1.1134,4.2642-0.5133,2.2345-1.379,5.7313-1.9238,7.7708-0.54477,2.0394-0.9905,3.7697-0.9905,3.845,0,0.0754,1.8741,0.13702,4.1648,0.13702h4.1648l-2.0609-8.1092zm20.139,4.9171,0-19.733,4.3529,0,4.3529,0,0,7.545,0,7.545,6.8195,0,6.8195,0,0-7.545,0-7.545,4.5,0,4.5,0-0.0746,19.66-0.0746,19.66-4.4254,0.0802-4.4254,0.0802,0-8.278,0-8.278-6.8195,0-6.8195,0,0,8.2705,0,8.2704-4.3529,0-4.3529,0,0-19.733zm-272.64-30.04c-15.317-2.4736-25.769-12.482-28.924-27.697-0.84143-4.0578-1.0547-13.25-0.40932-17.644,0.85874-5.8461,2.7562-11.133,5.7256-15.954,2.1102-3.4261,7.0562-8.3704,10.488-10.484,8.2951-5.1096,19.129-6.82,28.596-4.5143,3.9006,0.95003,9.9016,4.2582,13.498,7.4409l1.4057,1.2441-4.4245,5.4146-4.4245,5.4146-2.0595-1.5311c-3.9422-2.9308-5.7359-3.7214-9.6139-4.2374-1.8335-0.244-3.092-0.24254-4.958,0.006-11.771,1.5664-18.413,12.081-17.241,27.292,0.89559,11.621,5.7753,18.416,14.725,20.504,4.635,1.0816,10.675,0.60419,13.365-1.0564l0.94869-0.58561-0.0782-6.4576-0.0782-6.4577-6.1666-0.0782-6.1666-0.0783v-6.8137-6.8137h13.639,13.639v17.39,17.39l-2.3614,1.7794c-3.6627,2.7599-8.9227,5.1041-14.034,6.2545-2.93,0.65944-11.716,0.8191-15.09,0.27424zm47.35-0.91333c-0.10636-0.10635-0.19346-17.017-0.19346-37.58v-37.386h23.506,23.506v7.1097,7.1097h-14.945-14.945v7.545,7.545h12.768,12.768v7.1097,7.1097h-12.768-12.768v8.5606,8.5606h15.525,15.525v7.2548,7.2548h-23.893c-13.141,0-23.98-0.0871-24.086-0.19346zm59.296-37.548,0-37.452,16.904,0.10103c16.298,0.0974,17.018,0.12492,20.096,0.76689,8.737,1.8226,14.42,6.0192,17.218,12.714,1.8646,4.462,2.1802,11.723,0.75277,17.322-1.3675,5.3636-5.7119,10.754-10.587,13.137-0.93174,0.45534-1.7011,0.90429-1.7097,0.99764-0.0115,0.13169,12.478,22.304,16.128,28.632l0.71155,1.2333-9.516-0.008-9.516-0.008-7.1099-13.414-7.1099-13.414-4.7154-0.0798-4.7154-0.0797v13.501,13.501h-8.4156-8.4156v-37.452zm31.243-3.5478c5.3074-1.5304,7.9568-4.9656,8.001-10.374,0.0342-4.1737-1.1786-6.626-4.0494-8.1884-2.6912-1.4647-4.3193-1.7287-11.617-1.8832l-6.747-0.14292v10.66,10.66l6.4568-0.15007c4.4513-0.10347,6.9222-0.28425,7.9552-0.58213zm34.398,40.641c0.0679-0.20192,5.3342-17.049,11.703-37.439l11.58-37.072h10.239c5.6316,0,10.239,0.0496,10.239,0.11039,0,0.0607,5.1627,16.613,11.473,36.782,6.31,20.169,11.548,36.967,11.64,37.329l0.16761,0.65717-8.9476-0.0768-8.9475-0.0768-2.0637-7.9803c-1.135-4.3892-2.1537-8.3409-2.2638-8.7816l-0.20009-0.80136-11.503,0.0759-11.503,0.0759-2.2284,8.7058-2.2283,8.7057-8.64,0.0768c-6.865,0.0612-8.6146,0.002-8.5166-0.29019zm41.042-31.2c-0.55345-1.9245-2.967-11.38-5.1139-20.035-2.3676-9.5442-2.7289-10.801-3.0126-10.484-0.0595,0.0665-1.0522,4.1691-2.2061,9.1169s-2.8682,11.867-3.8095,15.375c-0.94135,3.5086-1.7116,6.4141-1.7116,6.4568,0,0.0426,3.5999,0.0776,7.9998,0.0776,7.4811,0,7.9904-0.0329,7.8538-0.50783zm32.899-5.8764,0-37.435,8.4156,0,8.4156,0,0,15.38c0,8.4591,0.0979,15.376,0.21765,15.37s5.2274-6.9267,11.35-15.38l11.133-15.37h9.2703c7.0731,0,9.2199,0.0815,9.0577,0.344-0.11686,0.18921-5.0909,6.7836-11.053,14.654-5.9624,7.8705-10.908,14.485-10.99,14.699-0.0821,0.21372,5.7984,10.395,13.068,22.625,7.2692,12.23,13.217,22.308,13.217,22.396,0,0.0881-4.1418,0.12565-9.204,0.0835l-9.204-0.0765-9.0056-15.593c-4.9531-8.5759-9.0965-15.562-9.2077-15.525-0.1111,0.037-2.1026,2.5719-4.4254,5.633l-4.2234,5.5658v10.032,10.032h-8.4156-8.4156v-37.435z"
       style="fill:#000000" />
  </g>
</svg>
