<?xml version="1.0" encoding="UTF-8" standalone="no"?>
<!-- Created with Inkscape (http://www.inkscape.org/) -->

<svg
   xmlns:dc="http://purl.org/dc/elements/1.1/"
   xmlns:cc="http://creativecommons.org/ns#"
   xmlns:rdf="http://www.w3.org/1999/02/22-rdf-syntax-ns#"
   xmlns:svg="http://www.w3.org/2000/svg"
   xmlns="http://www.w3.org/2000/svg"
   xmlns:sodipodi="http://sodipodi.sourceforge.net/DTD/sodipodi-0.dtd"
   xmlns:inkscape="http://www.inkscape.org/namespaces/inkscape"
   id="svg3573"
   height="400"
   width="400"
   version="1.1"
   inkscape:version="0.48.5 r10040"
   sodipodi:docname="logo-peduli-lawan-corona-19.svg">
  <defs
     id="defs11" />
  <sodipodi:namedview
     pagecolor="#ffffff"
     bordercolor="#666666"
     borderopacity="1"
     objecttolerance="10"
     gridtolerance="10"
     guidetolerance="10"
     inkscape:pageopacity="0"
     inkscape:pageshadow="2"
     inkscape:window-width="705"
     inkscape:window-height="480"
     id="namedview9"
     showgrid="false"
     inkscape:zoom="0.59"
     inkscape:cx="200"
     inkscape:cy="200"
     inkscape:window-x="0"
     inkscape:window-y="0"
     inkscape:window-maximized="0"
     inkscape:current-layer="svg3573" />
  <metadata
     id="metadata3578">
    <rdf:RDF>
      <cc:Work
         rdf:about="">
        <dc:format>image/svg+xml</dc:format>
        <dc:type
           rdf:resource="http://purl.org/dc/dcmitype/StillImage" />
        <dc:title></dc:title>
        <cc:license
           rdf:resource="http://creativecommons.org/licenses/by-nc-sa/3.0/" />
      </cc:Work>
      <cc:License
         rdf:about="http://creativecommons.org/licenses/by-nc-sa/3.0/">
        <cc:permits
           rdf:resource="http://creativecommons.org/ns#Reproduction" />
        <cc:permits
           rdf:resource="http://creativecommons.org/ns#Distribution" />
        <cc:requires
           rdf:resource="http://creativecommons.org/ns#Notice" />
        <cc:requires
           rdf:resource="http://creativecommons.org/ns#Attribution" />
        <cc:prohibits
           rdf:resource="http://creativecommons.org/ns#CommercialUse" />
        <cc:permits
           rdf:resource="http://creativecommons.org/ns#DerivativeWorks" />
        <cc:requires
           rdf:resource="http://creativecommons.org/ns#ShareAlike" />
      </cc:License>
    </rdf:RDF>
  </metadata>
  <g
     id="layer1"
     transform="translate(-262.89045,-244.47178)">
    <g
       id="g3618"
       transform="matrix(1.783969,0,0,1.783969,-206.09795,-505.24587)">
      <path
         id="path3482"
         style="enable-background:accumulate;color:#000000;"
         fill="#ffe680"
         d="M78.031,145.38c-6.009,1.08-15.65,5.51-19.25,18.15,26.126,32.16,31.946,29.41,60.189,31.81,1.65-5.59-6.85-9.71-19.22-14.22,0,0,11-7.35,24.41,2.16,17.54,13.66,17.23,28.25,30.68,22.72-2.23-5.66-6.19-12.59-11.4-19.34,4.02,4.3,6.62,7.28,13.09,3.87-7.66-13.19-22.31-28.49-28.59-32.37-26.39-16.19-35.447-2-49.909-12.78zm-12.125,47.43c-1.551-0.04-3.304,0.33-5.406,1.19,2.229,5.66,6.159,12.59,11.375,19.34-4.023-4.3-6.619-7.28-13.094-3.87,7.664,13.19,22.312,28.49,28.594,32.37,26.395,16.19,35.475,2,49.935,12.78,6.01-1.08,15.62-5.51,19.22-18.15-26.12-32.16-31.91-29.41-60.155-31.81-1.652,5.59,6.845,9.71,19.215,14.22,0,0-11,7.35-24.402-2.16-14.801-11.53-16.907-23.7-25.282-23.91z"
         transform="matrix(0.56054786,0,0,0.56054786,262.89044,420.25262)" />
      <path
         id="path3486"
         style="baseline-shift:baseline;block-progression:tb;color:#000000;direction:ltr;text-indent:0;text-align:start;enable-background:accumulate;text-transform:none;"
         transform="matrix(0.56054786,0,0,0.56054786,262.89044,420.25262)"
         fill="#333333"
         d="M78.594,143l-0.969,0.16c-6.643,1.2-17.12,6.26-20.969,19.78l-0.312,1.12,0.718,0.91c13.134,16.17,21.378,23.82,30.157,27.69,8.779,3.86,17.521,3.71,31.561,4.9l1.84,0.19,0.5-1.75c0.59-1.97,0.24-4.05-0.78-5.72-1.01-1.67-2.57-3.06-4.46-4.31-2.58-1.71-6.08-3.25-9.88-4.78,0.47-0.11,0.69-0.27,1.22-0.35,3.94-0.58,9.35-0.2,15.56,4.19l0.06,0.06c8.42,6.58,12.48,13.29,16.44,18.16,1.99,2.44,4.01,4.5,6.75,5.53,2.75,1.03,5.98,0.8,9.66-0.72l2.06-0.84-0.84-2.06c-1.36-3.44-3.43-7.27-5.85-11.22,2,0.11,4.11-0.18,6.5-1.44l2.06-1.06-1.15-2c-3.96-6.81-9.64-14.02-15.13-20.06-5.48-6.05-10.59-10.91-14.18-13.13-13.54-8.31-23.17-8.93-30.691-8.75-7.518,0.18-12.449,1.07-19.125-3.91l-0.75-0.59zm-0.844,4.78c7.342,4.96,13.951,4.35,20.844,4.19,7.226-0.17,15.366,0.21,28.216,8.09,2.69,1.67,7.93,6.45,13.25,12.32,4.73,5.2,9.44,11.28,13.06,17.06-1.26,0.33-2.28,0.36-3.12,0-1.32-0.58-2.88-2.15-4.91-4.32-5.21-6.72-11.65-13.24-18.9-18.37l-2.57,3.63c6.9,4.87,13.16,11.3,18.19,17.84,0.01,0.01-0.01,0.02,0,0.03,4.39,5.71,7.63,11.34,9.85,16.28-1.63,0.37-2.95,0.46-4,0.06-1.53-0.57-3.1-1.96-4.91-4.18-3.62-4.46-8.14-11.84-17.22-18.91l-0.06-0.03c-7.16-5.08-13.95-5.75-18.85-5.03-4.89,0.72-8.089,2.84-8.089,2.84l-3.687,2.47,4.125,1.44c6.131,2.23,11.261,4.45,14.411,6.53,1.57,1.04,2.62,2.03,3.12,2.84,0.08,0.13-0.03,0.2,0.03,0.32-12.34-0.98-20.388-1.2-27.53-4.35-7.505-3.3-15.241-10.33-27.594-25.41,3.442-10.44,11.128-14.23,16.344-15.34zm-11.75,42.78c-0.386-0.01-0.786,0-1.188,0.03-1.606,0.13-3.347,0.59-5.187,1.35l-2,0.84,0.781,2.06c1.356,3.45,3.415,7.29,5.844,11.25-1.988-0.11-4.08,0.15-6.469,1.41l-2.062,1.09,1.187,2.03c3.954,6.81,9.546,13.96,15.032,20,5.485,6.05,10.686,10.87,14.281,13.1,13.541,8.3,23.141,8.93,30.661,8.75,7.51-0.18,12.44-1.01,19.12,3.97l0.78,0.56,0.94-0.16c6.64-1.2,17.12-6.23,20.97-19.75l0.34-1.12-0.72-0.94c-13.13-16.17-21.41-23.79-30.19-27.65-8.77-3.87-17.55-3.78-31.589-4.97l-1.781-0.16-0.5,1.78c-0.581,1.97-0.237,4.08,0.781,5.75,1.019,1.67,2.575,3,4.469,4.25,2.57,1.71,5.99,3.26,9.78,4.78-0.46,0.11-0.69,0.27-1.22,0.35-3.93,0.58-9.3,0.17-15.498-4.19-0.034-0.03-0.059-0.04-0.093-0.06-8.393-6.57-12.512-13.27-16.469-18.13-1.987-2.44-3.973-4.53-6.719-5.56-1.029-0.39-2.123-0.62-3.281-0.66zm-0.188,4.47c0.702,0.02,1.333,0.16,1.907,0.38,1.529,0.57,3.031,1.93,4.843,4.15,3.625,4.45,8.14,11.84,17.219,18.91l0.063,0.06h0.062c7.157,5.08,13.954,5.78,18.844,5.06s8.06-2.84,8.06-2.84l3.69-2.44-4.12-1.5c-6.14-2.23-11.3-4.38-14.44-6.47-1.57-1.04-2.63-2.09-3.128-2.9-0.076-0.13-0.005-0.23-0.062-0.35,12.38,0.98,20.44,1.2,27.59,4.35,7.52,3.31,15.19,10.4,27.57,25.5-3.46,10.39-11.14,14.17-16.35,15.28-7.34-4.95-13.89-4.35-20.78-4.19-7.23,0.17-15.37-0.21-28.218-8.09-2.687-1.67-8.02-6.38-13.343-12.25-4.721-5.21-9.341-11.35-12.969-17.13,1.262-0.33,2.28-0.36,3.125,0,1.238,0.54,2.778,2.04,4.625,4,0.119,0.13,0.159,0.15,0.281,0.28,5.221,6.74,11.614,13.33,18.875,18.47l2.594-3.69c-12.927-9.14-23.303-23.58-28.062-34.18,0.441-0.1,1.024-0.35,1.406-0.38,0.255-0.02,0.485-0.03,0.718-0.03z" />
      <path
         id="text3492"
         style="baseline-shift:baseline;block-progression:tb;color:#000000;direction:ltr;text-indent:0;text-align:start;enable-background:accumulate;text-transform:none;"
         d="M203.28,149.5c-1.12,0-2.42,0.05-3.9,0.16-1.49,0.1-2.9,0.27-4.22,0.53v26.65h6.09v-9.06h1.91c4.05,0,7.16-0.71,9.34-2.16,2.18-1.44,3.28-3.78,3.28-7.03,0-3.22-1.06-5.55-3.22-6.97-2.16-1.41-5.25-2.12-9.28-2.12zm54,0c-1.09,0-2.42,0.03-3.94,0.12-1.52,0.1-2.97,0.28-4.37,0.54v26.31c1.4,0.29,2.82,0.47,4.28,0.56s2.75,0.16,3.84,0.16c2.4,0,4.55-0.31,6.47-0.88,1.93-0.57,3.54-1.42,4.88-2.56s2.39-2.6,3.12-4.34c0.73-1.75,1.1-3.76,1.1-6.1,0-2.44-0.37-4.54-1.1-6.28s-1.77-3.19-3.12-4.31-2.99-1.92-4.88-2.44c-1.88-0.52-3.97-0.78-6.28-0.78zm-34.47,0.31v27.03h19.16v-5.12h-13.06v-6.5h10.81v-5h-10.81v-5.31h12.15v-5.1h-18.25zm57.03,0v16.81c0,1.59,0.2,3.04,0.63,4.35s1.1,2.42,2,3.37,2.03,1.69,3.41,2.22c1.37,0.54,3,0.82,4.9,0.82,1.92,0,3.6-0.27,5-0.79,1.41-0.52,2.56-1.23,3.47-2.18s1.59-2.12,2.03-3.44c0.44-1.33,0.66-2.76,0.66-4.35v-16.81h-6.1v16.28c0,2.19-0.45,3.75-1.37,4.66s-2.11,1.37-3.59,1.37c-0.73,0-1.43-0.1-2.04-0.31s-1.13-0.55-1.56-1.03-0.75-1.11-1-1.87c-0.25-0.77-0.37-1.72-0.37-2.82v-16.28h-6.07zm30.47,0v27.03h18.07v-5.25h-11.97v-21.78h-6.1zm24.47,0v27.03h6.1v-27.03h-6.1zm-131.12,4.88c0.88,0,1.71,0.04,2.43,0.15,0.73,0.12,1.34,0.33,1.85,0.63,0.5,0.3,0.88,0.69,1.15,1.19,0.28,0.49,0.41,1.12,0.41,1.87,0,1.56-0.53,2.65-1.59,3.22-1.07,0.57-2.65,0.84-4.75,0.84h-1.91v-7.78c0.31-0.02,0.66-0.07,1.09-0.09,0.43-0.03,0.87-0.03,1.32-0.03zm52.65,0c0.44-0.02,0.87,0,1.28,0,3.05,0,5.26,0.73,6.66,2.19,1.4,1.45,2.12,3.6,2.13,6.43-0.01,2.71-0.75,4.81-2.22,6.35-1.47,1.53-3.71,2.31-6.75,2.31-0.52,0-0.97-0.02-1.35-0.03-0.37-0.02-0.71-0.04-1-0.06v-17.07c0.39-0.05,0.81-0.11,1.25-0.12zm-61.15,33.97v27.03h18.06v-5.22h-11.97v-21.81h-6.09zm31.9,0c-0.91,1.87-1.78,3.78-2.62,5.75-0.85,1.96-1.69,4.03-2.56,6.21-0.88,2.19-1.78,4.54-2.69,7-0.91,2.47-1.86,5.16-2.88,8.07h6.31c0.29-0.94,0.62-1.89,0.97-2.88s0.7-1.98,1.03-2.97h10.54c0.33,0.99,0.68,1.98,1.03,2.97s0.65,1.94,0.93,2.88h6.54c-1.02-2.91-2-5.6-2.91-8.07-0.91-2.46-1.79-4.81-2.66-7-0.87-2.18-1.73-4.25-2.59-6.21-0.86-1.97-1.74-3.88-2.62-5.75h-5.82zm19.69,0c0.91,4.52,1.97,9.12,3.16,13.78,1.18,4.65,2.46,9.06,3.84,13.25h5.56c0.91-2.5,1.8-5.1,2.63-7.85,0.83-2.74,1.63-5.49,2.47-8.25,0.83,2.76,1.7,5.51,2.56,8.25,0.86,2.75,1.71,5.35,2.62,7.85h5.6c1.38-4.19,2.66-8.6,3.84-13.25,1.18-4.66,2.22-9.26,3.13-13.78h-6.32c-0.26,1.53-0.54,3.13-0.84,4.78s-0.59,3.3-0.91,4.97c-0.31,1.66-0.65,3.28-1,4.84s-0.69,2.99-1.03,4.31c-0.41-1.22-0.84-2.54-1.28-3.97s-0.88-2.85-1.31-4.28-0.84-2.81-1.22-4.15-0.72-2.53-1.03-3.6h-5.19c-0.28,1.04-0.59,2.21-0.94,3.53-0.35,1.33-0.74,2.7-1.15,4.13-0.42,1.43-0.84,2.88-1.28,4.31-0.45,1.43-0.91,2.76-1.38,4.03-0.36-1.32-0.71-2.75-1.06-4.31s-0.69-3.18-1.03-4.84c-0.34-1.67-0.66-3.32-0.97-4.97s-0.62-3.25-0.88-4.78h-6.59zm49.28,0c-0.91,1.87-1.81,3.78-2.65,5.75-0.85,1.96-1.7,4.03-2.57,6.21-0.87,2.19-1.78,4.54-2.69,7-0.9,2.47-1.86,5.16-2.87,8.07h6.31c0.29-0.94,0.62-1.89,0.97-2.88s0.69-1.98,1.03-2.97h10.53c0.34,0.99,0.68,1.98,1.03,2.97,0.36,0.99,0.66,1.94,0.94,2.88h6.53c-1.01-2.91-1.99-5.6-2.9-8.07-0.91-2.46-1.79-4.81-2.66-7-0.87-2.18-1.73-4.25-2.59-6.21-0.86-1.97-1.74-3.88-2.63-5.75h-5.78zm22,0v27.03h6v-17.69c2.29,2.68,4.44,5.52,6.47,8.53,2.03,3.02,3.91,6.06,5.66,9.16h5.12v-27.03h-6.06v15.96c-0.94-1.4-1.94-2.88-3-4.4-1.07-1.52-2.14-2.99-3.22-4.41-1.08-1.41-2.12-2.75-3.16-4s-1.98-2.3-2.84-3.15h-4.97zm-88.19,6.12c0.16,0.39,0.37,0.92,0.63,1.6,0.26,0.67,0.55,1.46,0.91,2.34,0.35,0.88,0.73,1.87,1.12,2.94,0.39,1.06,0.8,2.17,1.22,3.34h-7.69c0.42-1.17,0.82-2.28,1.22-3.34,0.4-1.07,0.79-2.06,1.13-2.94,0.33-0.88,0.61-1.67,0.87-2.34,0.26-0.68,0.46-1.21,0.59-1.6zm68.94,0c0.16,0.39,0.37,0.92,0.63,1.6,0.26,0.67,0.55,1.46,0.9,2.34s0.74,1.87,1.13,2.94c0.39,1.06,0.8,2.17,1.22,3.34h-7.69c0.41-1.17,0.81-2.28,1.22-3.34,0.4-1.07,0.78-2.06,1.12-2.94s0.62-1.67,0.88-2.34c0.26-0.68,0.46-1.21,0.59-1.6zm36.22,32.19c-1.37,0-2.54,0.26-3.5,0.75s-1.78,1.1-2.41,1.84c-0.62,0.75-1.08,1.59-1.37,2.5s-0.44,1.79-0.44,2.66c0,1.04,0.17,1.98,0.47,2.84,0.3,0.87,0.77,1.64,1.41,2.25,0.64,0.62,1.44,1.07,2.43,1.41,1,0.33,2.22,0.5,3.63,0.5,0.39,0,0.85-0.03,1.4-0.13,0.56-0.09,1.05-0.25,1.5-0.47-0.3,0.96-0.71,1.75-1.24,2.38-0.54,0.63-1.15,1.12-1.91,1.5s-1.66,0.65-2.66,0.81c-0.99,0.17-2.11,0.26-3.34,0.28,0.04,0.7,0.08,1.35,0.12,2,0.05,0.65,0.08,1.34,0.1,2.03,2.47-0.02,4.61-0.33,6.4-0.9,1.8-0.58,3.28-1.43,4.44-2.53,1.16-1.11,2.01-2.47,2.56-4.1,0.56-1.62,0.85-3.47,0.85-5.59,0-3.23-0.71-5.72-2.13-7.44s-3.52-2.59-6.31-2.59zm-129.41,0.03c-1.64,0-3.18,0.26-4.59,0.78s-2.61,1.31-3.62,2.31c-1.02,1.01-1.83,2.23-2.41,3.69-0.59,1.46-0.88,3.14-0.88,5,0,3.75,0.96,6.62,2.88,8.66,1.92,2.03,4.71,3.06,8.37,3.06,1.72,0,3.2-0.18,4.5-0.53s2.32-0.72,3.04-1.16l-1.41-4.06c-0.28,0.13-0.59,0.29-0.94,0.44s-0.76,0.28-1.22,0.4c-0.45,0.12-0.94,0.2-1.53,0.29-0.58,0.08-1.26,0.15-2,0.15-1.17,0-2.18-0.21-3-0.59s-1.46-0.88-1.97-1.53-0.9-1.42-1.12-2.32c-0.23-0.9-0.35-1.86-0.35-2.9,0-1.3,0.19-2.41,0.54-3.31,0.34-0.91,0.8-1.68,1.37-2.26,0.57-0.57,1.25-0.98,2-1.24,0.75-0.27,1.5-0.38,2.28-0.38,1.17,0,2.21,0.11,3.13,0.38,0.92,0.26,1.74,0.56,2.43,0.93l1.44-4.09c-0.17-0.11-0.45-0.24-0.84-0.44-0.39-0.19-0.85-0.38-1.44-0.56-0.59-0.19-1.28-0.36-2.06-0.5s-1.64-0.22-2.6-0.22zm20.79,0c-1.5,0-2.93,0.25-4.29,0.75-1.35,0.5-2.53,1.25-3.56,2.25s-1.86,2.23-2.47,3.69c-0.6,1.46-0.9,3.16-0.9,5.09s0.29,3.6,0.87,5.06c0.59,1.47,1.39,2.71,2.41,3.69,1.02,0.99,2.2,1.72,3.56,2.22s2.84,0.75,4.38,0.75c1.58,0,3.06-0.25,4.43-0.75,1.38-0.5,2.57-1.23,3.57-2.22,0.99-0.98,1.76-2.22,2.34-3.69,0.57-1.46,0.87-3.13,0.87-5.06s-0.32-3.63-0.9-5.09c-0.59-1.46-1.36-2.69-2.38-3.69s-2.23-1.75-3.59-2.25c-1.37-0.5-2.81-0.75-4.34-0.75zm56.09,0.28c-0.91,0-2.02,0.02-3.28,0.1-1.27,0.07-2.49,0.22-3.66,0.43v21.94c1.17,0.24,2.38,0.39,3.59,0.47,1.22,0.07,2.25,0.12,3.16,0.12,1.99,0,3.8-0.24,5.41-0.72,1.6-0.47,2.98-1.2,4.09-2.15,1.12-0.95,1.96-2.14,2.56-3.59,0.61-1.46,0.91-3.15,0.91-5.1,0-2.04-0.3-3.8-0.91-5.25-0.6-1.45-1.46-2.63-2.59-3.56s-2.46-1.63-4.03-2.06c-1.57-0.44-3.32-0.63-5.25-0.63zm-42.97,0.25c0.48,1.43,1.06,3.06,1.72,4.88s1.37,3.72,2.16,5.71c0.78,2,1.6,4,2.46,6.04,0.87,2.03,1.74,4.02,2.63,5.9h4.87c0.89-1.88,1.76-3.87,2.63-5.9,0.87-2.04,1.69-4.04,2.47-6.04,0.78-1.99,1.5-3.89,2.15-5.71s1.22-3.45,1.72-4.88h-5.4c-0.44,1.3-0.9,2.71-1.41,4.22s-1.03,3.01-1.56,4.5-1.06,2.92-1.56,4.28c-0.51,1.37-0.97,2.54-1.38,3.53-0.43-0.99-0.91-2.16-1.41-3.53-0.49-1.36-1-2.79-1.53-4.28s-1.05-2.99-1.56-4.5-0.97-2.92-1.41-4.22h-5.59zm25.75,0v22.53h5.06v-22.53h-5.06zm52.37,0c-0.47,0.5-1.02,0.96-1.62,1.41-0.6,0.44-1.19,0.88-1.84,1.28s-1.32,0.76-2,1.09c-0.69,0.34-1.34,0.65-1.97,0.91l1.47,3.72c0.75-0.26,1.51-0.55,2.31-0.91s1.54-0.75,2.19-1.19v16.22h4.84v-22.53h-3.38zm17.5,3.47c0.65,0,1.19,0.14,1.63,0.44,0.44,0.29,0.8,0.71,1.06,1.22s0.46,1.1,0.57,1.78c0.1,0.68,0.16,1.4,0.18,2.18,0,0.07-0.02,0.14-0.03,0.22-0.01,0.09,0,0.2,0,0.28v0.29c-0.26,0.17-0.68,0.31-1.22,0.4-0.54,0.1-1.03,0.16-1.53,0.16-1.3,0-2.24-0.28-2.81-0.85-0.58-0.56-0.88-1.42-0.88-2.59,0-0.39,0.07-0.81,0.19-1.22s0.29-0.78,0.53-1.12c0.24-0.35,0.55-0.63,0.94-0.85,0.39-0.21,0.85-0.34,1.37-0.34zm-108.74,0.47c0.93,0,1.75,0.15,2.5,0.5,0.74,0.35,1.39,0.86,1.9,1.5s0.89,1.41,1.16,2.31,0.4,1.9,0.4,3c0,1.11-0.13,2.08-0.4,2.97s-0.65,1.67-1.16,2.31-1.16,1.12-1.9,1.47c-0.75,0.35-1.57,0.53-2.5,0.53-0.96,0-1.8-0.18-2.54-0.53-0.73-0.35-1.36-0.83-1.87-1.47s-0.92-1.42-1.19-2.31-0.41-1.86-0.4-2.97c-0.01-1.08,0.13-2.07,0.4-2.97s0.68-1.67,1.19-2.31,1.14-1.14,1.87-1.5c0.74-0.36,1.58-0.53,2.54-0.53zm55.28,0.12c0.36-0.01,0.71,0,1.06,0,2.53,0,4.39,0.6,5.56,1.82,1.17,1.21,1.75,3.01,1.75,5.37,0,2.25-0.62,4-1.84,5.28-1.23,1.28-3.09,1.94-5.63,1.94-0.43,0-0.81-0.02-1.12-0.03-0.32-0.01-0.61-0.04-0.85-0.06v-14.22c0.33-0.05,0.7-0.09,1.07-0.1zm16.03,6.57v4.37h9.4v-4.37h-9.4z"
         fill-rule="nonzero"
         transform="matrix(0.56054786,0,0,0.56054786,262.89044,420.25262)"
         fill="#333333" />
    </g>
  </g>
</svg>
